<?xml version="1.0" encoding="UTF-8"?><svg xmlns="http://www.w3.org/2000/svg" viewBox="0 0 140.05 199.83"><defs><style>.cls-1{fill:#504a42;}.cls-2{fill:#f5a202;}.cls-3{fill:red;mix-blend-mode:soft-light;opacity:.2;}.cls-4{isolation:isolate;}.cls-5{fill:#681114;}.cls-6{fill:#fff;}.cls-7{fill:#121212;}.cls-8{fill:#890091;}.cls-9{opacity:.1;}.cls-10{fill:#b22b91;}.cls-11{fill:#991b1e;}</style></defs><g class="cls-4"><g id="Layer_1"><circle class="cls-8" cx="66.76" cy="57.45" r="24.36"/><path class="cls-11" d="M140.05,132.31v67.51s0,.01-.01.01h-25.57c-2.44-2.14-4.55-4.74-6.18-7.76l-4.51-8.33-31.36-57.91-10.44-19.27-.23-.42-.29-.53-12.41-22.91-.64-1.19,5.64-3.05.19-.11,36.87-19.96,2.65-1.43,4.24-2.3.67,1.23,8.11,14.98,4.72,8.71,10.1,18.66.4.74,18.05,33.33Z"/><polygon class="cls-1" points="107.27 70.81 58.14 76.4 61.57 106.57 125.64 105.97 107.27 70.81"/><ellipse class="cls-5" cx="94.02" cy="106.6" rx="31.99" ry="1.56"/><polygon class="cls-2" points="140.05 132.31 140.05 164.1 103.78 183.74 72.42 125.83 105.22 108.07 108.81 106.13 110.41 105.26 121.99 98.99 122 98.98 140.05 132.31"/><rect class="cls-3" x="87.24" y="119.87" width="36.69" height="11.22" rx="5.61" ry="5.61" transform="translate(-47.02 65.42) rotate(-28.44)"/><rect class="cls-2" x="46.21" y="57.67" width="64.07" height="38.1" rx="7.25" ry="7.25" transform="translate(-27.09 46.52) rotate(-28.44)"/><rect class="cls-3" x="58.51" y="81.9" width="5.33" height="16.75" rx="2.66" ry="2.66" transform="translate(-35.61 40.03) rotate(-28.44)"/><rect class="cls-3" x="71.1" y="75.09" width="5.33" height="16.75" rx="2.66" ry="2.66" transform="translate(-30.84 45.2) rotate(-28.44)"/><rect class="cls-3" x="83.68" y="68.27" width="5.33" height="16.75" rx="2.66" ry="2.66" transform="translate(-26.08 50.37) rotate(-28.44)"/><rect class="cls-3" x="96.26" y="61.46" width="5.33" height="16.75" rx="2.66" ry="2.66" transform="translate(-21.32 55.54) rotate(-28.44)"/><rect class="cls-10" x="41.02" y="62.99" width="11.21" height="16.62" rx="5.6" ry="5.6" transform="translate(87.12 -3.65) rotate(61.56)"/><rect class="cls-10" x="86.21" y="38.52" width="11.21" height="16.62" rx="5.6" ry="5.6" transform="translate(89.27 -56.21) rotate(61.56)"/><rect class="cls-10" x="38.01" y="66.98" width="16.83" height="15.26" rx="6.93" ry="6.93" transform="translate(89.92 -1.74) rotate(61.56)"/><rect class="cls-10" x="86.29" y="40.83" width="16.83" height="15.26" rx="6.93" ry="6.93" transform="translate(92.22 -57.89) rotate(61.56)"/><path class="cls-6" d="M66.36,56.82c-.42.23-.85.41-1.28.55-3,1.04-6.3.32-8.57-1.79-.69-.62-1.27-1.37-1.73-2.22-2.24-4.14-.7-9.32,3.45-11.57,4.14-2.24,9.32-.7,11.57,3.44,2.25,4.15.7,9.33-3.44,11.58Z"/><path class="cls-7" d="M65.08,57.37c-3,1.04-6.3.32-8.57-1.79-.61-2.17.33-4.54,2.39-5.65.24-.13.48-.23.73-.31,1.64-.59,3.45-.23,4.76.84.47.39.89.89,1.2,1.46.98,1.81.71,3.96-.51,5.45Z"/><circle class="cls-6" cx="62.07" cy="49.75" r="2.44"/><path class="cls-11" d="M27.31,173.94h0c-13.66,0-24.73-11.07-24.73-24.73v-.1c0-4.89,1.28-9.69,3.71-13.93l16.96-29.59c1.72-2.99,6.03-3.01,7.76-.03l17.21,29.56c2.49,4.28,3.81,9.15,3.81,14.1h0c0,13.66-11.07,24.73-24.73,24.73Z"/><circle class="cls-9" cx="28.13" cy="129.68" r="4.15"/><circle class="cls-9" cx="17.43" cy="147.36" r="4.15"/><circle class="cls-9" cx="35.88" cy="159.59" r="4.15"/></g></g></svg>