<?xml version="1.0" encoding="UTF-8"?><svg id="Layer_1" xmlns="http://www.w3.org/2000/svg" viewBox="0 0 140.05 199.83"><defs><style>.cls-1{fill:#ffb72b;}.cls-2{fill:#ffbf6b;}.cls-3{fill:#f5a202;}.cls-4{fill:#fff;}.cls-5{fill:#121212;}.cls-6{fill:#261f16;}.cls-7{fill:#ffe2b1;}</style></defs><path class="cls-4" d="M140.05,83.46v27.8l-7.91,19.11-10.63,25.65-.25.6-16.57,40.03h0c-.06-.02-.14-.05-.2-.07-.1-.04-.19-.08-.28-.12-.26-.1-.51-.21-.76-.32-.11-.05-.23-.1-.34-.15-.06-.03-.12-.05-.17-.08-.37-.16-.73-.33-1.1-.51-.14-.05-.27-.12-.4-.19-.27-.13-.54-.26-.8-.4-.31-.16-.61-.32-.9-.48-.37-.2-.75-.41-1.11-.64-.35-.19-.69-.39-1.02-.61-.38-.23-.76-.48-1.13-.72-.26-.17-.52-.35-.78-.52-.24-.16-.48-.33-.7-.5-.22-.16-.43-.31-.64-.47,0,0,0,0,0,0-.19-.14-.37-.27-.57-.43-.25-.18-.49-.37-.73-.58-.2-.15-.4-.31-.59-.48-.22-.18-.44-.37-.66-.57-.18-.16-.37-.31-.54-.48-.32-.29-.64-.58-.96-.89l-.05-.05c-.37-.36-.73-.71-1.1-1.09-.04-.04-.07-.07-.1-.11-.36-.37-.7-.73-1.04-1.11-.03-.02-.05-.05-.06-.07-.37-.39-.71-.79-1.05-1.21,0,0-.02,0-.02-.02-.29-.35-.58-.69-.85-1.05-.15-.17-.28-.35-.4-.53-.2-.25-.38-.5-.58-.76-.11-.15-.22-.3-.33-.47-.06-.08-.13-.17-.19-.26-.05-.06-.09-.13-.14-.19v-.02s4.07-9.79,4.07-9.79l.04-.09,8.93-21.55,4.57-11.04,1.99-4.81,3.67-8.87,24.66-59.56,7.75,18.68Z"/><path class="cls-6" d="M140.05,83.46v112.22c-.55.26-1.11.49-1.67.73-4.52,1.87-9.17,2.95-13.8,3.3-2.25.16-4.5.16-6.71,0-4.55-.35-8.99-1.39-13.18-3.06-.06-.02-.14-.05-.2-.07-.1-.04-.19-.08-.28-.12-.26-.1-.51-.21-.76-.32-.11-.05-.23-.1-.34-.15h0c-.06-.03-.12-.05-.17-.08-.37-.16-.73-.33-1.1-.51-.14-.05-.27-.12-.4-.19-.27-.13-.54-.26-.8-.4-.31-.16-.61-.32-.9-.48-.37-.2-.75-.41-1.11-.64-.35-.19-.69-.39-1.02-.61-.38-.23-.76-.48-1.13-.72-.26-.17-.52-.35-.78-.52-.24-.16-.48-.33-.7-.5-.22-.16-.43-.31-.64-.47,0,0,0,0,0,0-.19-.14-.37-.27-.57-.43-.25-.18-.49-.37-.73-.58-.2-.15-.4-.31-.59-.48-.22-.18-.44-.37-.66-.57-.18-.16-.37-.31-.54-.48-.32-.29-.64-.58-.96-.89l-.05-.05c-.37-.36-.73-.71-1.1-1.09-.04-.04-.07-.07-.1-.11-.36-.37-.7-.73-1.04-1.11-.03-.02-.05-.05-.06-.07-.37-.39-.71-.79-1.05-1.21,0,0-.02,0-.02-.02-.29-.35-.58-.69-.85-1.05-.15-.17-.28-.35-.4-.53-.2-.25-.38-.5-.58-.76-.11-.15-.22-.3-.33-.47-.06-.08-.13-.17-.19-.26-.05-.06-.09-.14-.13-.21-1.41-2.02-2.65-4.18-3.72-6.47-.05-.08-.08-.16-.13-.25-.23-.52-.47-1.05-.69-1.59l-10.32-24.9h0s-4.71-11.38-4.71-11.38h0s-.9-2.17-.9-2.17l-1.21-2.9v-.02l-4.01-9.68-.05-.12-4.04-9.76-10.48-25.28c-9.47-22.85,1.38-49.04,24.23-58.51,5.61-2.32,11.41-3.43,17.13-3.43,17.57,0,34.24,10.42,41.39,27.66l5.42,13.08,7.75,18.68Z"/><path class="cls-5" d="M119.71,62.14c7.15,17.26-1.05,37.06-18.3,44.21-17.26,7.15-37.06-1.05-44.21-18.3-3.51-8.48-3.32-17.58-.17-25.48,3.26-8.19,9.7-15.09,18.47-18.73,10.21-4.23,21.3-3.09,30.14,2.11,6.11,3.6,11.14,9.15,14.06,16.19Z"/><path class="cls-6" d="M116.7,62.6c6.37,15.38-1.23,33.14-16.98,39.67-15.75,6.52-33.69-.65-40.06-16.03-3.13-7.55-2.89-15.69.04-22.78,3.03-7.35,8.93-13.57,16.94-16.88,9.31-3.86,19.39-2.93,27.39,1.66,5.53,3.18,10.06,8.09,12.66,14.37Z"/><rect class="cls-3" x="48.57" y="64.54" width="76.33" height="12.96" rx="6.48" ry="6.48" transform="translate(-20.4 38.03) rotate(-22.2)"/><polygon class="cls-5" points="140.05 132.33 140.05 147.84 121.51 156.02 111.95 160.25 102.32 164.5 88.49 170.6 82.57 173.21 80.92 173.94 80.91 173.92 80.73 173.47 69.54 146.87 64.83 135.68 64.83 135.67 64 133.71 62.79 130.82 62.78 130.81 58.71 121.13 58.66 121.01 54.54 111.23 54.62 111.25 107.64 124.34 108.9 124.65 132.14 130.38 140.05 132.33"/><polygon class="cls-5" points="140.05 84.15 140.05 148.57 121.27 156.62 112 160.6 102.35 164.74 88.45 170.69 82.57 173.21 80.91 173.92 80.67 174.02 80.32 174.17 80.55 173.77 80.73 173.47 96.05 146.91 96.06 146.91 101.51 137.46 103.97 133.21 108.9 124.65 136.79 76.35 140.05 84.15"/><path class="cls-3" d="M116.35,56.52c6.95,16.77-1.02,36-17.78,42.95-16.77,6.95-36-1.02-42.95-17.78-3.41-8.24-3.23-17.08-.16-24.76,3.17-7.95,9.42-14.66,17.95-18.19,9.92-4.11,20.69-3.01,29.29,2.05,5.93,3.5,10.83,8.89,13.66,15.73Z"/><path class="cls-2" d="M102.68,40.79c-2.85,1.49-13.48-.52-17.72.62-4.79,1.29-3.13,6.4-14.06,13-6.06,3.66-11.67,3.44-15.45,2.51,3.17-7.95,9.42-14.66,17.95-18.19,9.92-4.11,20.69-3.01,29.29,2.05Z"/><circle class="cls-4" cx="97.38" cy="57.85" r="7.28"/><circle class="cls-5" cx="97.44" cy="60.89" r="4.43"/><circle class="cls-4" cx="99.29" cy="56.89" r="2.92"/><circle class="cls-4" cx="73.08" cy="68.08" r="7.67"/><circle class="cls-5" cx="73.21" cy="71.28" r="4.45"/><circle class="cls-4" cx="75.07" cy="67.26" r="2.92"/><path class="cls-3" d="M104.99,60.4c-2.23-.48-6.16,1.35-8.78,4.08-2.61,2.73-2.92,5.33-.69,5.81s6.16-1.35,8.78-4.08c2.61-2.73,2.92-5.33.69-5.81Z"/><path class="cls-3" d="M81.51,71.66c-2.08-.95-6.31-.01-9.45,2.09s-4,4.57-1.93,5.52,6.31.01,9.45-2.09c3.14-2.1,4-4.57,1.93-5.52Z"/><path class="cls-2" d="M100.04,30.27s-4.86,4.06-7.15,10.74c-.04.11,11.22.7,11.22.7l-4.07-11.44Z"/><path class="cls-2" d="M94.11,32.94s-3.68,2.26-5.17,7.9c-.03.1,7.73.48,7.73.48l-2.56-8.39Z"/><circle class="cls-5" cx="98.29" cy="79.24" r="4.89"/><rect class="cls-3" x="12.13" y="108.48" width="6.1" height="19.67" rx="3.05" ry="3.05" transform="translate(-79.47 45.71) rotate(-45.2)"/><rect class="cls-3" x="31.14" y="104.38" width="6.1" height="13.62" rx="3.05" ry="3.05" transform="translate(-.38 .12) rotate(-.2)"/><rect class="cls-3" x="5.17" y="130.53" width="6.1" height="13.62" rx="3.05" ry="3.05" transform="translate(-129.09 146.03) rotate(-90.2)"/><path class="cls-5" d="M112.53,167.59c.04,10.65-3.47,20.48-9.42,28.39h0c-.98,1.3-2.02,2.55-3.12,3.73H30.92c-7.76-8.36-12.51-19.54-12.54-31.84-.06-23.75,17.47-43.46,40.34-46.74,2.16-.31,4.36-.48,6.61-.48,14.53-.04,27.54,6.5,36.2,16.81.16.18.31.37.47.56,5.11,6.28,8.63,13.89,9.97,22.24,0,.11.03.23.05.35.34,2.27.52,4.61.53,6.99Z"/><path class="cls-1" d="M102.46,167.61c.03,8.64-2.91,16.61-7.87,22.92-.08.11-.16.21-.26.31h0c-2.32,2.91-5.06,5.45-8.14,7.53-.48.33-.98.65-1.49.96-.21.13-.42.26-.63.37h-37.27c-.17-.1-.35-.2-.52-.31-.5-.31-1-.63-1.5-.96-1.23-.83-2.4-1.73-3.53-2.7-7.83-6.76-12.79-16.75-12.83-27.9v-.05c0-.26,0-.52,0-.79,0-.17,0-.35,0-.52.03-.63.06-1.26.12-1.89.03-.37.06-.75.11-1.11,0-.14.03-.27.05-.4.07-.61.16-1.22.27-1.83.05-.32.12-.64.18-.96.09-.46.19-.9.31-1.35.02-.12.05-.24.08-.36.16-.61.33-1.21.51-1.81.09-.3.19-.6.29-.9.12-.36.25-.71.38-1.07.07-.2.16-.41.23-.6.28-.72.58-1.43.92-2.14.21-.45.43-.9.66-1.33.46-.89.95-1.75,1.47-2.58.19-.31.38-.61.58-.91.09-.15.19-.28.28-.42.11-.16.21-.31.33-.47.17-.25.35-.49.53-.73.13-.18.26-.36.4-.53.22-.29.45-.58.69-.86.18-.23.37-.46.57-.68,1.32-1.53,2.75-2.94,4.3-4.23.29-.25.58-.48.88-.71.29-.23.58-.46.89-.68.29-.22.58-.43.88-.62.75-.53,1.52-1.01,2.3-1.48.26-.16.51-.3.77-.44,2.83-1.59,5.9-2.8,9.14-3.6.58-.15,1.18-.27,1.77-.39.53-.1,1.06-.19,1.59-.26.07,0,.15-.03.23-.04.13-.02.26-.04.39-.05.17-.02.35-.05.52-.06.54-.07,1.09-.13,1.64-.16h.05c.34-.03.68-.05,1.02-.05.51-.04,1.02-.05,1.54-.05,1.6,0,3.18.09,4.72.29.95.12,1.9.27,2.84.47,1.2.25,2.38.55,3.54.9.29.09.58.18.86.28,6.15,2.07,11.57,5.72,15.78,10.45.5.56.98,1.12,1.44,1.71.37.47.73.94,1.07,1.43.16.22.31.44.46.67h0c.35.51.69,1.03,1.01,1.56.12.19.24.38.35.58.34.58.66,1.16.97,1.75.26.53.53,1.07.78,1.62.13.27.25.55.37.82.24.55.46,1.11.67,1.67.21.57.4,1.14.58,1.72.18.58.35,1.16.5,1.75.07.29.15.59.22.89.14.59.26,1.2.37,1.8.2,1.12.36,2.27.45,3.43.02.07.02.16.03.24.07.95.12,1.91.12,2.88Z"/><path class="cls-3" d="M102.46,167.61c.03,8.64-2.91,16.61-7.87,22.92-.08.11-.16.21-.26.31h0c-2.32,2.91-5.06,5.45-8.14,7.53-.48.33-.98.65-1.49.96-.21.13-.42.26-.63.37h-37.27c-.17-.1-.35-.2-.52-.31-.5-.31-1-.63-1.5-.96-1.23-.83-2.4-1.73-3.53-2.7-7.83-6.76-12.79-16.75-12.83-27.9v-.05c0-.26,0-.52,0-.79,0-.17,0-.35,0-.52.03-.63.06-1.26.12-1.89.03-.37.06-.75.11-1.11,0-.14.03-.27.05-.4.07-.61.16-1.22.27-1.83.05-.32.12-.64.18-.96.09-.46.19-.9.31-1.35.02-.12.05-.24.08-.36.16-.61.33-1.21.51-1.81.09-.3.19-.6.29-.9.12-.36.25-.71.38-1.07.07-.2.16-.41.23-.6.28-.72.58-1.43.92-2.14.21-.45.43-.9.66-1.33.46-.89.95-1.75,1.47-2.58.19-.31.38-.61.58-.91.09-.15.19-.28.28-.42.11-.16.21-.31.33-.47.17-.25.35-.49.53-.73.13-.18.26-.36.4-.53.22-.29.45-.58.69-.86.18-.23.37-.46.57-.68,1.32-1.53,2.75-2.94,4.3-4.23.29-.25.58-.48.88-.71.29-.23.58-.46.89-.68.29-.22.58-.43.88-.62.75-.53,1.52-1.01,2.3-1.48.26-.16.51-.3.77-.44,2.83-1.59,5.9-2.8,9.14-3.6.58-.15,1.18-.27,1.77-.39.53-.1,1.06-.19,1.59-.26.07,0,.15-.03.23-.04.13-.02.26-.04.39-.05.3-.04.61-.07.91-.1.41-.05.82-.09,1.24-.11.03,0,.05,0,.06,0,.34-.03.68-.05,1.01-.06.34,0,.68-.02,1.01-.03.17,0,.36,0,.53,0,1.6,0,3.17.09,4.72.28.95.12,1.9.27,2.84.47,1.2.25,2.38.55,3.54.9.29.09.58.18.86.28,6.15,2.07,11.57,5.72,15.78,10.45.5.56.99,1.12,1.44,1.71.37.47.73.94,1.07,1.43.16.22.32.45.47.67.35.51.69,1.03,1.01,1.56.12.19.24.38.35.58.34.58.66,1.16.97,1.75.27.53.53,1.07.78,1.62.13.27.25.55.37.82.24.55.46,1.11.67,1.67.21.57.4,1.14.58,1.72.18.58.35,1.16.5,1.75.07.29.15.59.22.89.14.59.26,1.2.37,1.8.2,1.12.36,2.27.45,3.43.02.07.02.16.03.24.07.95.12,1.91.12,2.88Z"/><path class="cls-7" d="M64.82,130.73l.11,36.95-36.48.11c-.03-20.24,16.2-36.72,36.37-37.05Z"/><rect class="cls-5" x="39.11" y="163.55" width="25.38" height="8.42" rx="4.21" ry="4.21" transform="translate(-.5 .16) rotate(-.17)"/><rect class="cls-5" x="48.11" y="146.62" width="34.59" height="8.3" rx="4.15" ry="4.15" transform="translate(215.98 84.92) rotate(89.83)"/><circle class="cls-5" cx="65.45" cy="167.73" r="8.29"/></svg>