<?xml version="1.0" encoding="UTF-8"?><svg id="Layer_1" xmlns="http://www.w3.org/2000/svg" xmlns:xlink="http://www.w3.org/1999/xlink" viewBox="0 0 140.05 199.83"><defs><style>.cls-1{fill:#3f3f3f;}.cls-2{fill:url(#linear-gradient-5);}.cls-3{fill:url(#linear-gradient-6);}.cls-4{fill:url(#linear-gradient-4);}.cls-5{fill:url(#linear-gradient-3);}.cls-6{fill:url(#linear-gradient-2);}.cls-7{fill:url(#linear-gradient);}.cls-8{fill:#575757;}.cls-9,.cls-10{fill:#121212;}.cls-11{fill:#8b8b8b;}.cls-10{filter:url(#drop-shadow-1);}</style><filter id="drop-shadow-1" x="23.2" y="99.02" width="110" height="61.72" filterUnits="userSpaceOnUse"><feOffset dx="0" dy="-22"/><feGaussianBlur result="blur" stdDeviation="4"/><feFlood flood-color="#fff" flood-opacity=".4"/><feComposite in2="blur" operator="in"/><feComposite in="SourceGraphic"/></filter><linearGradient id="linear-gradient" x1="79.11" y1="132.75" x2="79.11" y2="98.09" gradientUnits="userSpaceOnUse"><stop offset=".55" stop-color="#fff"/><stop offset="1" stop-color="#fff" stop-opacity="0"/></linearGradient><linearGradient id="linear-gradient-2" x1="79.7" y1="115.32" x2="73.58" y2="53.82" xlink:href="#linear-gradient"/><linearGradient id="linear-gradient-3" x1="93.66" y1="114.24" x2="93.66" y2="93.32" xlink:href="#linear-gradient"/><linearGradient id="linear-gradient-4" x1="92.47" y1="114.24" x2="92.47" y2="93.32" xlink:href="#linear-gradient"/><linearGradient id="linear-gradient-5" x1="66.51" y1="114.24" x2="66.51" y2="93.32" xlink:href="#linear-gradient"/><linearGradient id="linear-gradient-6" x1="65.31" y1="114.24" x2="65.31" y2="93.32" xlink:href="#linear-gradient"/></defs><path class="cls-11" d="M140.05,141.2v16.97c-1.63,10.36-7.38,19.35-15.52,25.21-6.33,4.58-14.11,7.28-22.53,7.28h-48.48c-8.43,0-16.21-2.7-22.54-7.28-9.43-6.81-15.67-17.79-15.98-30.26,0-.33,0-.66,0-1v-10.93h125.07Z"/><path class="cls-1" d="M96.4,42.5h1.48c7.85,0,14.23,6.38,14.23,14.23v15.9h-15.71v-30.13h0Z"/><path class="cls-8" d="M110.36,93.19c-1.36-.38-2.76-.69-4.18-.93-1.16-.2-2.33-.35-3.51-.44-.33-.03-.66-.06-.99-.08h-.01c-.88-.05-1.77-.08-2.67-.08h-42.51c-.85,0-1.69.03-2.53.07-2.07.13-4.11.4-6.1.81-19.44,3.99-34.06,21.18-34.06,41.8v14.16h126.25v-25.94c-4.08-14.24-15.38-25.44-29.69-29.37Z"/><rect class="cls-10" x="35.32" y="133.25" width="85.63" height="27.49" rx="12.22" ry="12.22"/><rect class="cls-11" x="41.57" y="69.56" width="75.09" height="17.76" rx="8.88" ry="8.88"/><path class="cls-11" d="M110.36,71.58v21.88c0,1.17-.09,2.32-.26,3.45-1.66,10.97-11.13,19.38-22.56,19.38h-16.85c-11.44,0-20.91-8.41-22.57-19.38-.17-1.13-.26-2.28-.26-3.45v-21.88c0-.55.02-1.11.07-1.65.83-11.83,10.71-21.17,22.76-21.17h16.85c3.14,0,6.14.64,8.86,1.79,1.98.83,3.81,1.93,5.46,3.26,4.78,3.86,7.97,9.61,8.43,16.11.05.55.07,1.1.07,1.66Z"/><path class="cls-7" d="M110.1,96.91c-1.66,10.97-11.13,19.38-22.56,19.38h-16.85c-11.44,0-20.91-8.41-22.57-19.38h61.98Z"/><circle class="cls-8" cx="93.66" cy="91.24" r="12.56"/><path class="cls-11" d="M102.69,91.24c0,4.98-4.04,9.02-9.02,9.02-.17,0-.33,0-.5,0-.9-.06-1.77-.23-2.58-.53-1.14-.41-2.17-1.04-3.04-1.84-1.71-1.58-2.81-3.8-2.91-6.28,0-.12,0-.24,0-.36,0-4.98,4.04-9.02,9.02-9.02.12,0,.24,0,.36,0,2.48.09,4.7,1.2,6.27,2.9.81.87,1.44,1.9,1.85,3.04.3.81.48,1.68.53,2.58,0,.17,0,.33,0,.5Z"/><path class="cls-8" d="M100.29,85.13l-12.74,12.75c-1.71-1.58-2.81-3.8-2.91-6.28l9.38-9.38c2.48.09,4.7,1.2,6.27,2.9Z"/><path class="cls-8" d="M102.68,90.75l-9.51,9.51c-.9-.06-1.77-.23-2.58-.53l11.55-11.55c.3.81.48,1.68.53,2.58Z"/><path class="cls-1" d="M140.05,145.53v7.59H13.73c-2,0-3.62-1.63-3.62-3.62v-.35c0-2,1.63-3.62,3.62-3.62h126.32Z"/><path class="cls-9" d="M124.52,136.85v53.07c0,.83-.1,1.63-.29,2.41-.9,3.71-3.82,6.62-7.53,7.51H38.79c-3.71-.89-6.63-3.8-7.53-7.51-.19-.78-.29-1.58-.29-2.41v-53.07c0-5.63,4.57-10.2,10.2-10.2h73.15c5.63,0,10.2,4.57,10.2,10.2Z"/><path class="cls-8" d="M84.65,153.12c-1.98-1.32-4.36-2.09-6.9-2.09s-4.92.77-6.89,2.09c-3.31,2.24-5.49,6.01-5.49,10.29,0,6.83,5.55,12.38,12.38,12.38s12.38-5.55,12.38-12.38c0-4.28-2.18-8.05-5.48-10.29ZM77.75,173.71c-5.68,0-10.3-4.62-10.3-10.3,0-3.9,2.18-7.3,5.38-9.04.28,2.77,2.03,5.22,4.61,6.38.13.06.28.09.42.09.42,0,.79-.24.96-.62.23-.52,0-1.14-.53-1.37-2.1-.94-3.43-3.03-3.41-5.33.47-.14.98-.24,1.48-.3.24,1.78,1.38,3.34,3.06,4.09.14.06.28.09.42.09.42,0,.79-.24.96-.62.11-.25.12-.54.02-.8-.11-.25-.29-.46-.56-.58-.94-.42-1.59-1.27-1.79-2.25,5.34.37,9.58,4.82,9.58,10.26s-4.62,10.3-10.3,10.3Z"/><path class="cls-8" d="M75.82,165.26c0-1.77-1.44-3.2-3.2-3.2s-3.2,1.44-3.2,3.2c0,.57.47,1.04,1.04,1.04s1.04-.47,1.04-1.04c0-.62.5-1.12,1.12-1.12s1.12.5,1.12,1.12c0,.57.47,1.04,1.04,1.04s1.04-.47,1.04-1.04Z"/><path class="cls-8" d="M83.02,162.06c-1.77,0-3.2,1.44-3.2,3.2,0,.57.47,1.04,1.04,1.04s1.04-.47,1.04-1.04c0-.62.5-1.12,1.12-1.12s1.12.5,1.12,1.12c0,.57.47,1.04,1.04,1.04s1.04-.47,1.04-1.04c0-1.77-1.44-3.2-3.2-3.2Z"/><path class="cls-8" d="M79.69,167.52h-3.88c-.57,0-1.04.47-1.04,1.04s.47,1.04,1.04,1.04h3.88c.57,0,1.04-.47,1.04-1.04s-.47-1.04-1.04-1.04Z"/><path class="cls-1" d="M86.09,35.6s4.42-4.22,9.78-1.13c5.35,3.09,9.57,12.55,6.17,19.04-3.4,6.48-17.8,10.08-28.61,6.28-10.8-3.81-18.21-4.21-19.49,4.9-1.18,8.39-6.54,4.98-6.54,4.98,0,0-5.76-9.06-2.78-16.16,2.98-7.1,10.5-12.97,19.76-11.83,9.26,1.13,12.35,3.6,18.73,2.47,6.38-1.13,2.98-8.54,2.98-8.54Z"/><path class="cls-6" d="M86.09,35.6s4.42-4.22,9.78-1.13c5.35,3.09,9.57,12.55,6.17,19.04-3.4,6.48-17.8,10.08-28.61,6.28-10.8-3.81-18.21-4.21-19.49,4.9-1.18,8.39-6.54,4.98-6.54,4.98,0,0-5.76-9.06-2.78-16.16,2.98-7.1,10.5-12.97,19.76-11.83,9.26,1.13,12.35,3.6,18.73,2.47,6.38-1.13,2.98-8.54,2.98-8.54Z"/><path class="cls-8" d="M39.73,63.04l-2.55-9.52c-1.13-4.23-6.43-5.65-9.52-2.55h0c-3.1,3.1-1.68,8.39,2.55,9.52l9.52,2.55Z"/><path class="cls-8" d="M76.04,35.51l4.48-7.76c1.99-3.45-.5-7.76-4.48-7.76h0c-3.98,0-6.48,4.31-4.48,7.76l4.48,7.76Z"/><path class="cls-8" d="M117.04,67.09l8.66-2.32c3.85-1.03,5.14-5.84,2.32-8.66h0c-2.82-2.82-7.63-1.53-8.66,2.32l-2.32,8.66Z"/><path class="cls-1" d="M140.05,192.32v7.5s0,0,0,0H1.24c-.78-.79-1.24-1.88-1.24-3.07s.49-2.34,1.3-3.14c.8-.8,1.92-1.3,3.14-1.3h135.61Z"/><circle class="cls-8" cx="66.51" cy="91.24" r="12.56"/><path class="cls-11" d="M75.53,91.24c0,4.98-4.04,9.02-9.02,9.02-.17,0-.33,0-.5,0-.9-.06-1.77-.23-2.58-.53-1.14-.41-2.17-1.04-3.04-1.84-1.71-1.58-2.81-3.8-2.91-6.28,0-.12,0-.24,0-.36,0-4.98,4.04-9.02,9.02-9.02.12,0,.24,0,.36,0,2.48.09,4.7,1.2,6.27,2.9.81.87,1.44,1.9,1.85,3.04.3.81.48,1.68.53,2.58,0,.17,0,.33,0,.5Z"/><path class="cls-8" d="M73.14,85.13l-12.74,12.75c-1.71-1.58-2.81-3.8-2.91-6.28l9.38-9.38c2.48.09,4.7,1.2,6.27,2.9Z"/><path class="cls-8" d="M75.52,90.75l-9.51,9.51c-.9-.06-1.77-.23-2.58-.53l11.55-11.55c.3.81.48,1.68.53,2.58Z"/><circle class="cls-5" cx="93.66" cy="91.24" r="12.56"/><path class="cls-4" d="M100.29,85.13l-12.74,12.75c-1.71-1.58-2.81-3.8-2.91-6.28l9.38-9.38c2.48.09,4.7,1.2,6.27,2.9Z"/><circle class="cls-2" cx="66.51" cy="91.24" r="12.56"/><path class="cls-3" d="M73.14,85.13l-12.74,12.75c-1.71-1.58-2.81-3.8-2.91-6.28l9.38-9.38c2.48.09,4.7,1.2,6.27,2.9Z"/></svg>