<?xml version="1.0" encoding="UTF-8"?><svg id="Layer_1" xmlns="http://www.w3.org/2000/svg" xmlns:xlink="http://www.w3.org/1999/xlink" viewBox="0 0 140.05 199.83"><defs><style>.cls-1{fill:#f5f9fa;}.cls-2{fill:#3f3f3f;}.cls-3{fill:url(#linear-gradient-3);}.cls-4{fill:url(#linear-gradient-2);}.cls-5{fill:#575757;}.cls-6{fill:#717171;}.cls-7{fill:#121212;}.cls-8{fill:#8b8b8b;}.cls-9{fill:url(#linear-gradient);filter:url(#outer-glow-1);}</style><linearGradient id="linear-gradient" x1="43.01" y1="97.91" x2="61.22" y2="97.91" gradientUnits="userSpaceOnUse"><stop offset=".55" stop-color="#fff"/><stop offset="1" stop-color="#fff" stop-opacity="0"/></linearGradient><filter id="outer-glow-1" x="9.39" y="42.02" width="85" height="112" filterUnits="userSpaceOnUse"><feOffset dx="0" dy="0"/><feGaussianBlur result="blur" stdDeviation="11"/><feFlood flood-color="#fff" flood-opacity=".91"/><feComposite in2="blur" operator="in"/><feComposite in="SourceGraphic"/></filter><linearGradient id="linear-gradient-2" x1="48.18" y1="81.92" x2="19.56" y2="61.32" xlink:href="#linear-gradient"/><linearGradient id="linear-gradient-3" x1="39.79" y1="90.92" x2="22.95" y2="74.44" xlink:href="#linear-gradient"/></defs><path class="cls-8" d="M140.05,177.49v7.59c-4.58.94-10.85,1.51-17.75,1.51-2.18,0-4.28-.05-6.31-.16-9.98-.53-17.61-2.3-18.89-4.49-.13-.22-.2-.43-.2-.65,0-2.31,6.96-4.25,16.68-4.99,2.72-.21,5.65-.32,8.71-.32,6.91,0,13.17.57,17.75,1.51Z"/><path class="cls-5" d="M69.25,178.19c0,8.04,21.02,17.01,51.18,17.01,2.19,0,4.4-.05,6.57-.15,1.25-.07,2.36.93,2.42,2.21.06,1.27-.94,2.36-2.21,2.42-2.24.1-4.52.15-6.78.15-31.82,0-55.81-9.31-55.81-21.64,0-9,12.77-16.38,32.02-19.72,7.14-1.24,15.18-1.92,23.78-1.92,6.98,0,13.57.44,19.62,1.28v4.71c-5.93-.87-12.52-1.36-19.62-1.36-8.8,0-16.84.76-23.78,2.04-16.86,3.11-27.4,9.27-27.4,14.97Z"/><path class="cls-5" d="M55.59,195.76c-.54,0-1.08-.19-1.51-.57-.26-.23-6.38-5.64-5.85-13.49.4-5.9,4.37-11.36,11.82-16.25,1.07-.7,2.5-.4,3.2.66.7,1.07.4,2.5-.66,3.2-6.15,4.04-9.43,8.29-9.74,12.65-.4,5.54,4.22,9.69,4.27,9.73.95.84,1.05,2.3.21,3.26-.46.52-1.1.79-1.74.79Z"/><path class="cls-8" d="M139.92,90.71c.04.06.09.13.13.19v91.04h-43.4v-57.99h-24.39v-50.61h34.3c13.8,0,25.99,6.87,33.36,17.37Z"/><path class="cls-5" d="M139.92,90.71c.04.06.09.13.13.19v31.39l-52.18-27.9-.47-.26s-6.62.81-13.54-2.43c-.53-.24-1.07-.51-1.6-.81v-17.56h34.3c13.8,0,25.99,6.87,33.36,17.37Z"/><ellipse class="cls-6" cx="72.99" cy="97.9" rx="14.99" ry="28.98"/><rect class="cls-6" x="50.79" y="68.93" width="23.07" height="57.97" transform="translate(124.65 195.82) rotate(-180)"/><ellipse class="cls-5" cx="51.07" cy="97.9" rx="14.99" ry="28.98"/><path class="cls-2" d="M61.22,97.91c0,11.29-3.66,20.66-8.44,22.48-.56.21-1.13.32-1.71.32-5.61,0-10.16-10.21-10.16-22.81s4.55-22.82,10.16-22.82c.59,0,1.17.12,1.73.34,4.78,1.84,8.42,11.21,8.42,22.48Z"/><path class="cls-8" d="M61.22,97.91c0,11.29-3.66,20.66-8.44,22.48-5.42-.27-9.77-10.24-9.77-22.48s4.36-22.24,9.8-22.48c4.78,1.84,8.42,11.21,8.42,22.48Z"/><ellipse class="cls-9" cx="52.12" cy="97.91" rx="9.11" ry="22.82"/><ellipse class="cls-2" cx="50.38" cy="92.28" rx="12.46" ry="5.88" transform="translate(-48.53 127.91) rotate(-81.18)"/><ellipse class="cls-7" cx="50.44" cy="91.92" rx="9.79" ry="3.64" transform="translate(-48.13 127.67) rotate(-81.18)"/><ellipse class="cls-1" cx="51.49" cy="81.67" rx="4.01" ry="2.28" transform="translate(-37.11 120.02) rotate(-81.18)"/><path class="cls-8" d="M130.07,42.18c-.38.76-.77,1.52-1.19,2.26-3.56,6.46-8.32,12.18-13.98,16.82-10.05,8.27-22.9,13.23-36.91,13.23-15.64,0-29.84-6.18-40.28-16.22l-4.01,5.42-8.19,11.11c-4.48,6.07-12.91,7.54-19.15,3.4-.16-.1-.31-.2-.45-.31-6.44-4.62-7.84-13.63-3.07-19.96l19.22-25.6c8.11-10.8,21.82-15.82,34.97-12.8l71.93,20.7c-.69,1.85,1.98.18,1.11,1.94Z"/><path class="cls-4" d="M37.7,58.26l-4.01,5.42-8.19,11.11c-4.48,6.07-12.91,7.54-19.15,3.4,20.56-19.82,24.84-34.88,24.84-34.88,1.22,8.01,6.5,14.94,6.5,14.94Z"/><path class="cls-5" d="M128.87,44.44c-3.56,6.47-8.32,12.18-13.98,16.82l-20.08.32c-21,.34-37.98-17.06-37.13-38.06l71.19,20.92Z"/><polygon class="cls-8" points="37.3 86.39 37.17 86.34 20.78 79.71 19.84 71.97 19.96 71.96 27.5 71.51 37.3 86.39"/><polygon class="cls-3" points="37.3 86.39 37.17 86.34 20.78 79.71 19.84 71.97 19.96 71.96 27.5 71.51 37.3 86.39"/><polygon class="cls-5" points="37.17 86.34 20.78 79.71 19.84 71.97 19.96 71.96 37.17 86.34"/><circle class="cls-7" cx="13.39" cy="70.48" r="3.24"/><path class="cls-7" d="M140.05,38.73v13.41l-17.32,1.31-26.15,1.98c-19.28,1.47-36.05-12.28-38.91-30.86-.25-1.6-.39-3.25-.42-4.91l1.36.32,81.45,18.75Z"/></svg>