<?xml version="1.0" encoding="UTF-8"?><svg xmlns="http://www.w3.org/2000/svg" viewBox="0 0 140.05 199.83"><defs><style>.cls-1{fill:#ffbf6b;}.cls-2{fill:#f5a202;}.cls-3{fill:red;mix-blend-mode:soft-light;opacity:.2;}.cls-4{fill:#64016d;}.cls-5{isolation:isolate;}.cls-6{fill:#121212;}.cls-7{fill:#890091;}.cls-8,.cls-9{fill:#b22b91;}.cls-9{opacity:.5;}</style></defs><g class="cls-5"><g id="Layer_1"><rect class="cls-4" x="92.99" y="49.11" width="16.33" height="34.39" rx="8.16" ry="8.16" transform="translate(46.5 -41.59) rotate(29.89)"/><rect class="cls-4" x="79.5" y="59.39" width="16.33" height="34.39" rx="8.16" ry="8.16" transform="translate(138.75 -28.02) rotate(74.89)"/><rect class="cls-7" x="100.21" y="39.78" width="19.26" height="21.81" rx="7.06" ry="7.06" transform="translate(130.86 -68.45) rotate(75.24)"/><rect class="cls-7" x="97.57" y="35.32" width="10.01" height="21.6" rx="5.01" ry="5.01" transform="translate(-8.37 27.66) rotate(-14.76)"/><rect class="cls-8" x="104.54" y="43.11" width="19.26" height="12.84" rx="5.42" ry="5.42" transform="translate(132.99 -73.49) rotate(75.24)"/><rect class="cls-9" x="99.77" y="15.44" width="4.81" height="12.95" rx="2.41" ry="2.41" transform="translate(-1.72 10.72) rotate(-5.95)"/><rect class="cls-9" x="113.85" y="22.17" width="4.81" height="10.12" rx="2.41" ry="2.41" transform="translate(43.12 -67.16) rotate(39.05)"/><rect class="cls-6" x="82.86" y="109.76" width="8.49" height="76.84" transform="translate(-79.27 104.99) rotate(-45)"/><rect class="cls-6" x="85.42" y="109.76" width="8.49" height="76.84" transform="translate(131.04 -20) rotate(45)"/><path class="cls-6" d="M129.83,165.72c-5.6,0-10.91,1.26-15.66,3.52-2.64,1.26-5.11,2.82-7.35,4.65h-.01c-7.65,6.23-12.73,15.48-13.41,25.94h12.84c1.16-11.55,10.61-20.65,22.31-21.28.42-.02.85-.03,1.28-.03s.86.01,1.29.04c3.19.16,6.2.96,8.93,2.27v-13.66c-3.24-.94-6.67-1.45-10.22-1.45Z"/><path class="cls-6" d="M137.01,199.83h-14.36c.87-2.62,3.13-4.6,5.9-5.07.42-.07.84-.11,1.28-.11s.87.04,1.29.12c2.77.47,5.03,2.45,5.89,5.06Z"/><rect class="cls-6" x="128.55" y="176.41" width="2.57" height="23.42"/><path class="cls-6" d="M66.42,177.42c-1.92-2.09-4.1-3.95-6.47-5.53-5.81-3.9-12.8-6.17-20.31-6.17-19.36,0-35.2,15.07-36.43,34.11h12.84c1.16-11.55,10.6-20.65,22.31-21.28.42-.02.85-.03,1.28-.03s.86.01,1.28.03c11.71.63,21.16,9.73,22.32,21.28h12.84c-.56-8.63-4.12-16.45-9.66-22.41Z"/><path class="cls-6" d="M46.82,199.83h-14.36c.86-2.62,3.12-4.6,5.9-5.07.41-.07.84-.11,1.28-.11s.86.04,1.28.11c2.77.47,5.03,2.45,5.9,5.07Z"/><rect class="cls-6" x="38.36" y="176.41" width="2.56" height="23.42"/><rect class="cls-1" x="34.54" y="33.55" width="76.43" height="9.33" transform="translate(110.97 -34.54) rotate(90)"/><circle class="cls-1" cx="77.37" cy="4.74" r="4.74"/><circle class="cls-1" cx="77.37" cy="14.23" r="4.74"/><circle class="cls-1" cx="77.37" cy="23.72" r="4.74"/><circle class="cls-1" cx="77.37" cy="33.21" r="4.74"/><circle class="cls-1" cx="77.37" cy="42.7" r="4.74"/><circle class="cls-1" cx="77.37" cy="52.19" r="4.74"/><circle class="cls-1" cx="77.37" cy="61.68" r="4.74"/><circle class="cls-1" cx="77.37" cy="71.17" r="4.74"/><path class="cls-2" d="M140.05,82.36v45.67c-5.45,2.48-11.5,3.87-17.87,3.87H46.99c-23.8,0-43.09-19.3-43.09-43.1v-6.44h136.15Z"/><path class="cls-2" d="M74.09.02v75.07H4.53v-5.51c0-10.29,2.23-20.05,6.24-28.83,1.25-2.76,2.69-5.42,4.3-7.98,5.62-9.01,13.25-16.64,22.27-22.26,2.87-1.79,5.88-3.38,9.01-4.74,6.76-2.94,14.06-4.84,21.74-5.49,1.98-.17,3.98-.26,6-.26Z"/><path class="cls-1" d="M140.05,74.34v9.33H4.67c-.26,0-.52-.02-.77-.06C1.69,83.24,0,81.32,0,79,0,77.71.52,76.55,1.37,75.71c.81-.82,1.93-1.33,3.16-1.36.05-.01.09-.01.14-.01h135.38Z"/><path class="cls-3" d="M64.42,61.19L37.34,10.51c2.87-1.79,5.88-3.38,9.01-4.74l18.06,55.43Z"/><path class="cls-3" d="M54.29,66.6L10.77,40.74c1.25-2.76,2.69-5.42,4.3-7.98l39.22,33.84Z"/></g></g></svg>