<?xml version="1.0" encoding="UTF-8"?><svg id="Layer_1" xmlns="http://www.w3.org/2000/svg" viewBox="0 0 140.05 199.83"><defs><style>.cls-1{fill:#890091;}.cls-1,.cls-2,.cls-3,.cls-4,.cls-5,.cls-6,.cls-7{stroke-width:0px;}.cls-2{fill:#64006d;}.cls-3{fill:#b22b91;opacity:.5;}.cls-4{fill:#ffe2b1;}.cls-5{fill:#ffb72b;}.cls-6{fill:#fff;}.cls-7{fill:#0b1e33;}</style></defs><rect class="cls-4" x="37.97" y="169.16" width="102.08" height="12.23"/><path class="cls-7" d="M140.05,118.49v24.09H10.12c-5.39,0-9.75-4.36-9.75-9.75v-4.59c0-5.39,4.36-9.76,9.75-9.76h129.93Z"/><rect class="cls-4" x="34.14" y="139.38" width="13.87" height="51.41"/><path class="cls-7" d="M57.94,198.41c0,.48-.02.95-.07,1.43H24.28c-.05-.47-.07-.94-.07-1.43,0-6.85,4.08-12.73,9.93-15.37,2.11-.96,4.46-1.49,6.93-1.49s4.83.53,6.94,1.49c5.85,2.64,9.92,8.53,9.92,15.37Z"/><path class="cls-6" d="M140.05,74.65v56.65H40.3v-30.33c0-14.54,11.79-26.32,26.33-26.32h73.42Z"/><path class="cls-2" d="M140.05,100.61v20.96c-2.42,3.55-6.5,5.87-11.13,5.87h-21.89c-4.41,0-8.33-2.12-10.79-5.4-.81-1.07-1.46-2.27-1.91-3.55-.51-1.42-.79-2.95-.79-4.54v-5.72c0-4.01,1.75-7.63,4.54-10.08,2.37-2.12,5.51-3.41,8.95-3.41h21.89c4.63,0,8.71,2.32,11.13,5.87Z"/><path class="cls-2" d="M140.05,90.45v30.54c-1.35,1.13-3.08,1.8-4.97,1.8-2.15,0-4.1-.87-5.51-2.28-.59-.59-1.09-1.27-1.47-2.03-.52-1.04-.81-2.23-.81-3.47v-18.6c0-.58.07-1.15.18-1.69.77-3.48,3.88-6.09,7.6-6.09,1.9,0,3.62.68,4.97,1.81Z"/><circle class="cls-1" cx="83.91" cy="109.07" r="17.9"/><rect class="cls-4" x="24.32" y="109.18" width="115.73" height="42.72"/><path class="cls-4" d="M17.76,168.35c-3.6,0-6.51-2.91-6.51-6.51v-89.25c0-27.91,22.71-50.62,50.62-50.62h55.85c3.6,0,6.51,2.91,6.51,6.51s-2.91,6.51-6.51,6.51h-55.85c-20.73,0-37.6,16.87-37.6,37.6v89.25c0,3.6-2.91,6.51-6.51,6.51Z"/><rect class="cls-1" x="93.75" y="18.57" width="22.83" height="31.14" rx="11.42" ry="11.42"/><path class="cls-5" d="M140.05,16.3v25.58c-1.12.49-2.36.76-3.66.76h-62.44c-4.53,0-8.29-3.31-9-7.65-.08-.47-.12-.96-.12-1.47v-8.89c0-.93.13-1.82.4-2.66,1.14-3.73,4.6-6.44,8.71-6.44h62.44c1.3,0,2.55.27,3.66.76Z"/><rect class="cls-3" x="102.84" y="52.81" width="4.74" height="15.28" rx="2.37" ry="2.37"/><rect class="cls-3" x="117.17" y="48.59" width="4.74" height="10.58" rx="2.37" ry="2.37" transform="translate(-3.08 100.31) rotate(-45)"/><rect class="cls-3" x="88.56" y="48.59" width="4.74" height="10.58" rx="2.37" ry="2.37" transform="translate(64.73 -48.52) rotate(45)"/><circle class="cls-5" cx="62.91" cy="129.79" r="11.68"/><circle class="cls-7" cx="62.91" cy="129.79" r="5.5"/></svg>