<?xml version="1.0" encoding="UTF-8"?><svg id="Layer_1" xmlns="http://www.w3.org/2000/svg" viewBox="0 0 140.05 199.83"><defs><style>.cls-1{opacity:.3;}.cls-1,.cls-2,.cls-3,.cls-4,.cls-5,.cls-6,.cls-7,.cls-8,.cls-9,.cls-10{stroke-width:0px;}.cls-1,.cls-6{fill:#ffb72b;}.cls-2{fill:#ffa61d;}.cls-3{fill:#fc6164;}.cls-4,.cls-8{fill:#fffaf2;}.cls-5{fill:#ffe2b1;}.cls-7{fill:#991b1e;}.cls-8{opacity:.8;}.cls-9{fill:#fff;}.cls-10{fill:#8b171b;}</style></defs><path class="cls-7" d="M35.18,124.36c-1.14,0-2.06.92-2.06,2.06v28.29c0,8.85,7.2,16.05,16.05,16.05h17.7c1.14,0,2.06-.92,2.06-2.06s-.92-2.06-2.06-2.06h-17.7c-6.57,0-11.92-5.35-11.92-11.92v-28.29c0-1.14-.92-2.06-2.06-2.06Z"/><rect class="cls-9" x="100.56" y="9.83" width="14.78" height="136.69"/><path class="cls-9" d="M124.61,151.92v47.92h-33.32v-47.92c0-1.3.3-2.53.83-3.63.56-1.16,1.39-2.18,2.41-2.96.83-.64,1.78-1.13,2.82-1.41h0c.72-.21,1.47-.32,2.25-.32h16.69c.51,0,1.02.05,1.5.13,1.07.2,2.08.6,2.96,1.16,1.07.69,1.98,1.61,2.65,2.7.56.92.96,1.97,1.12,3.1.06.39.09.81.09,1.22Z"/><rect class="cls-9" x="32.18" y="9.83" width="6.56" height="60.63" rx="3.28" ry="3.28"/><path class="cls-9" d="M140,9.83v14.08H7.69c-3.9,0-7.04-3.15-7.04-7.04,0-1.94.79-3.7,2.07-4.98,1.27-1.27,3.04-2.06,4.98-2.06h132.31Z"/><polygon class="cls-9" points="140.05 135.92 140.05 166.68 124.61 181.37 122.82 183.07 105.2 199.83 72.86 199.83 91.29 182.31 98.83 175.13 105.01 169.25 124.52 150.69 140.05 135.92"/><path class="cls-5" d="M140.05,93.21v106.62h-75.1s0-.02,0-.02c0-.51,0-1.03,0-1.54l.69-27.5.1-4.13.42-16.89.26-10.41.61-24.45c.49-19.56,14.91-35.48,33.53-38.52,2.43-.39,4.94-.57,7.49-.51,2.5.06,4.93.35,7.28.85,10.24,2.15,19.01,8.21,24.71,16.5Z"/><path class="cls-4" d="M137.43,122.81c-.42,16.69-14.29,29.9-30.99,29.48-16.69-.42-29.9-14.29-29.48-30.99.2-8.2,3.66-15.57,9.11-20.88,5.63-5.51,13.4-8.81,21.88-8.6,9.87.25,18.52,5.2,23.86,12.66,3.68,5.16,5.79,11.52,5.62,18.33Z"/><path class="cls-2" d="M134.79,122.1c-.37,14.87-13.03,26.63-28.26,26.25-15.23-.38-27.29-12.75-26.91-27.63.18-7.31,3.33-13.87,8.3-18.6,5.14-4.9,12.22-7.84,19.96-7.65,9.01.22,16.9,4.64,21.78,11.29,3.36,4.6,5.29,10.26,5.14,16.33Z"/><path class="cls-6" d="M140.05,115.29v7.33c-.69.86-1.63,1.51-2.71,1.85-.56.19-1.15.28-1.77.28h-.17l-.81-.02-19.25-.58-14.78-.45-20.89-.64-.9-.02h-.03c-.63-.02-1.23-.14-1.78-.36-2.28-.83-3.87-3.05-3.79-5.61.09-2.93,2.34-5.28,5.17-5.58.17-.02.35-.04.52-.03.03,0,.06,0,.09,0h.17l2.39.07,19.04.58,11.08.33,3.7.11,8.27.25,9.84.3,2.31.07c.12,0,.24,0,.36.03.16,0,.3.02.45.06,1.41.24,2.63.98,3.49,2.03Z"/><polygon class="cls-1" points="140.05 196.44 140.05 199.83 65.19 199.83 65.19 199.64 65.76 170.77 65.83 166.64 66.17 149.74 66.37 139.3 66.43 139.34 91.29 158.62 105.01 169.25 105.92 169.96 122.82 183.07 124.61 184.46 140.05 196.44"/><polygon class="cls-8" points="140.05 145.11 140.05 199.83 64.92 199.83 64.95 199.81 65.19 199.64 91.29 180.62 98.83 175.13 105.92 169.96 124.61 156.36 140.05 145.11"/><path class="cls-6" d="M136.71,117c-.4,16.22-13.89,29.05-30.11,28.64-16.22-.4-29.05-13.89-28.64-30.11.2-7.97,3.56-15.13,8.85-20.29,5.47-5.35,13.02-8.56,21.26-8.36,9.59.24,18,5.05,23.18,12.3,3.58,5.01,5.62,11.19,5.46,17.81Z"/><path class="cls-7" d="M131.25,99.19c-2.87.19-10.82-5.31-14.71-5.92-4.38-.68-4.88,4.09-16.2,5.53-6.28.79-10.78-1.42-13.54-3.55,5.47-5.35,13.02-8.56,21.26-8.36,9.59.24,18,5.05,23.18,12.3Z"/><path class="cls-7" d="M132.91,89.63s-5.44,1.56-9.74,6.18c-.07.08,8.92,4.64,8.92,4.64l.82-10.82Z"/><path class="cls-7" d="M127.1,89.67s-3.82.51-7.09,4.58c-.06.07,6.14,3.2,6.14,3.2l.95-7.78Z"/><path class="cls-7" d="M91.31,116.56c-.78-.35-1.17-1.24-.87-2.05.31-.85,1.24-1.28,2.09-.98h0c.06.02,5.63,1.98,9.19-.44.75-.51,1.76-.31,2.27.43.51.75.31,1.76-.43,2.27-4.95,3.37-11.85.92-12.14.81-.04-.01-.07-.03-.1-.04Z"/><path class="cls-7" d="M112.01,115.09c-.61-.32-.98-1-.86-1.72.15-.89.99-1.49,1.88-1.35.1.02,5.9.9,8.95-2.13.64-.64,1.67-.63,2.31,0,.64.64.63,1.67,0,2.31-4.25,4.23-11.48,3.09-11.78,3.04-.17-.03-.33-.08-.48-.16Z"/><ellipse class="cls-7" cx="104.73" cy="133.12" rx="3.76" ry="6.26" transform="translate(-59.43 174.83) rotate(-66.06)"/><rect class="cls-10" x="24.53" y="112.74" width="21.81" height="22.89" rx="3.37" ry="3.37"/><rect class="cls-9" x="4.86" y="51.78" width="61.16" height="72.54" rx="10.04" ry="10.04"/><path class="cls-7" d="M63.04,64.07v47.78c0,5.05-4.06,9.14-9.06,9.14H16.89c-5,0-9.05-4.09-9.05-9.14v-47.78c0-5.05,4.06-9.14,9.05-9.14h37.09c5,0,9.06,4.09,9.06,9.14Z"/><path class="cls-9" d="M66.01,61.82v10.24H4.86v-10.24c0-5.54,4.49-10.04,10.03-10.04h41.09c5.54,0,10.04,4.49,10.04,10.04Z"/><circle class="cls-9" cx="35.61" cy="56.86" r="3.66"/><ellipse class="cls-3" cx="35.46" cy="72.05" rx="27.57" ry="1.37"/><rect class="cls-9" x="13.92" y="81.34" width="43.03" height="32.3" rx="8.86" ry="8.86"/><path class="cls-7" d="M24.64,105.2h0c-3.35,0-6.07-2.72-6.07-6.07v-.03c0-1.2.31-2.38.91-3.42l4.17-7.27c.42-.73,1.48-.74,1.91,0l4.23,7.26c.61,1.05.93,2.25.93,3.46h0c0,3.35-2.72,6.07-6.07,6.07Z"/><rect class="cls-7" x="34.44" y="90.29" width="18.27" height="4.52" rx="2.26" ry="2.26"/><rect class="cls-7" x="34.44" y="98.45" width="9.78" height="4.52" rx="2.26" ry="2.26"/></svg>