<?xml version="1.0" encoding="UTF-8"?><svg id="Layer_1" xmlns="http://www.w3.org/2000/svg" viewBox="0 0 25.22 25.22"><defs><style>.cls-1{fill:#ffb72b;}</style></defs><path class="cls-1" d="M16.38.58c.53.16,1.05.36,1.55.6-.5-.23-1.01-.43-1.55-.6Z"/><path class="cls-1" d="M25.22,12.61c0,6.96-5.64,12.61-12.61,12.61-.25,0-.5-.01-.74-.03-.38,0-.76-.05-1.14-.11-.64-.1-1.27-.24-1.87-.43-.2-.06-.39-.12-.58-.2-.16-.05-.32-.12-.47-.18-.18-.08-.37-.16-.55-.24-.18-.09-.36-.18-.53-.27-.18-.09-.35-.19-.52-.29-.4-.24-.78-.49-1.14-.76-.27-.2-.53-.42-.78-.64-.14-.13-.29-.26-.43-.4,0,0,.01,0,.02,0-2.39-2.29-3.88-5.5-3.88-9.06C0,5.64,5.65,0,12.61,0c.73,0,1.45.06,2.14.19.19.03.37.07.55.11.19.04.37.08.55.13.18.04.36.1.53.15.54.17,1.05.37,1.55.6.16.08.33.16.49.24.16.08.32.17.48.26.15.09.31.19.46.28.17.11.34.22.51.33.13.1.26.2.38.29.43.33.84.69,1.23,1.07.13.12.26.25.38.39.24.26.48.54.7.82.11.14.22.29.33.44.1.14.2.29.3.44.1.16.19.31.29.47.09.15.18.31.26.47.26.49.49.99.68,1.5.07.18.13.35.18.53.28.83.46,1.7.55,2.61.03.21.04.42.05.64.01.22.02.43.02.65Z"/><path class="cls-1" d="M16.38.58c.53.16,1.05.36,1.55.6-.5-.23-1.01-.43-1.55-.6Z"/></svg>