<?xml version="1.0" encoding="UTF-8"?><svg id="Layer_1" xmlns="http://www.w3.org/2000/svg" viewBox="0 0 300 300"><defs><style>.cls-1{fill:#0b1e33;}</style></defs><path class="cls-1" d="M271.22,154.14c1.08,5.79-.82,11.49-5.06,15.25-4.43,3.9-10.63,5.12-16.57,3.23l-4.15-1.34c-5.5-1.79-10.71-3.49-15.98-4.56-12.39-2.56-25.74-2.59-39.67-.15-14.15,2.49-28.25,5.28-42.34,8.07l-9.24,1.81c-17.09,3.35-38.89,5.65-53.95,5.89v20.66c-.03,23.92-.04,47.85.07,71.77.05,9.29-3.91,15.55-11.76,18.57l-1.27.48-31.14-.5c-7.59-2.95-11.77-9.05-11.77-17.14l.05-243.53c.01-1.79.13-4.09.89-6.47,1.46-4.43,4.47-7.87,8.49-9.72,4.31-1.97,9.41-1.93,14.34.14,12.6,5.24,26.51,7.42,42.51,6.84,14.25-.56,28.05-3.32,42.66-6.25l4.83-.96c14.85-2.93,29.75-5.59,44.65-8.25l2.05-.37c2.84-.5,5.7-.77,8.57-1.04l3.49-.36,18.37-.04,5.08.6c3.94.44,7.87.89,11.68,1.83,9.23,2.29,17.28,4.69,24.63,7.33,5.53,2.02,9.37,6.24,10.57,11.61,1.23,5.59-.69,11.58-5.16,16.04-11.52,11.51-22.64,24.58-35.85,42.18,13.51,19.37,26.35,40.07,38.21,61.58,1.05,1.91,2.26,4.08,2.77,6.8Z"/></svg>