<?xml version="1.0" encoding="UTF-8"?><svg id="Layer_1" xmlns="http://www.w3.org/2000/svg" viewBox="0 0 300 300"><defs><style>.cls-1{fill:#fff;}</style></defs><path class="cls-1" d="M271.21,154.13c1.08,5.79-.81,11.5-5.06,15.26-4.43,3.9-10.63,5.12-16.56,3.23l-4.15-1.34c-5.51-1.79-10.71-3.49-15.99-4.57-12.38-2.55-25.73-2.58-39.66-.14-14.15,2.49-28.25,5.28-42.35,8.07l-9.23,1.81c-17.09,3.35-38.9,5.65-53.95,5.89v20.66c-.03,23.92-.04,47.85.07,71.77.05,9.29-3.91,15.55-11.76,18.57l-1.27.48-31.14-.5c-7.59-2.96-11.78-9.05-11.78-17.14l.06-243.54c.01-1.78.12-4.08.89-6.46,1.46-4.43,4.46-7.88,8.48-9.72,4.32-1.97,9.42-1.93,14.35.14,12.6,5.24,26.51,7.42,42.5,6.84,14.25-.56,28.06-3.32,42.67-6.25l4.83-.96c14.85-2.93,29.74-5.59,44.65-8.25l2.05-.37c2.84-.5,5.7-.77,8.56-1.04l3.5-.36,18.36-.04,5.08.6c3.94.44,7.87.88,11.68,1.83,9.24,2.28,17.29,4.69,24.64,7.33,5.52,2.02,9.37,6.23,10.56,11.61,1.24,5.59-.68,11.58-5.15,16.04-11.52,11.51-22.64,24.58-35.85,42.17,13.51,19.38,26.35,40.08,38.21,61.59,1.05,1.9,2.26,4.08,2.76,6.79Z"/></svg>