<?xml version="1.0" encoding="UTF-8"?><svg id="Layer_1" xmlns="http://www.w3.org/2000/svg" viewBox="0 0 101.58 66.01"><defs><style>.cls-1{fill:#ffe2b1;}.cls-1,.cls-2,.cls-3,.cls-4{stroke-width:0px;}.cls-2{fill:#ffb72b;}.cls-3{fill:#fff;}.cls-4{fill:#0b1e33;}</style></defs><path class="cls-2" d="M101.58,8.82l-.84,57.19h-63.3l.23-15.25.05-3.13.24-15.98.07-4.71.26-17.62.02-1.44c.02-1.74.67-3.32,1.72-4.54,1.33-1.55,3.31-2.52,5.51-2.49l49.02.73c2.2.03,4.15,1.06,5.43,2.64,1.02,1.26,1.62,2.86,1.59,4.6Z"/><path class="cls-1" d="M93.58,14.91l-47.46-.71c-1.52-.02-2.86-.98-3.38-2.41l-2.5-6.89C39.36,2.5,41.17-.04,43.73,0l52.67.78c2.56.04,4.29,2.63,3.34,5.01l-2.71,6.81c-.56,1.41-1.93,2.33-3.45,2.31Z"/><circle class="cls-3" cx="69.94" cy="8.34" r="4.23"/><circle class="cls-3" cx="69.65" cy="28.27" r="4.23"/><rect class="cls-4" x="68.98" y="11.22" width="1.71" height="14.2" rx=".85" ry=".85" transform="translate(.28 -1.04) rotate(.85)"/><path class="cls-1" d="M62.13,20.28v45.73H0V16.19c0-3.8,3.07-6.87,6.86-6.87h41.18l6.43,5h0s7.65,5.96,7.65,5.96Z"/><path class="cls-2" d="M48.04,13.06v8.93c0,1.07.87,1.95,1.94,1.95l12.15.07v-3.72s-14.09-7.23-14.09-7.23Z"/><path class="cls-3" d="M48.04,9.32v8.93c0,1.07.87,1.95,1.94,1.95l12.15.07-14.09-10.95Z"/><rect class="cls-2" x="20.19" y="26.94" width="23.74" height="4.71" rx="2.35" ry="2.35"/><rect class="cls-2" x="6.68" y="47.63" width="22.99" height="3.13" rx="1.56" ry="1.56"/><rect class="cls-2" x="31.73" y="47.63" width="14.01" height="3.13" rx="1.56" ry="1.56"/><rect class="cls-2" x="6.68" y="54.93" width="30.53" height="3.13" rx="1.56" ry="1.56"/></svg>