<?xml version="1.0" encoding="UTF-8"?><svg id="Layer_1" xmlns="http://www.w3.org/2000/svg" viewBox="0 0 101.59 90.94"><defs><style>.cls-1{fill:#3f3f3f;}.cls-2{fill:#575757;}.cls-3{fill:#282828;}.cls-4{fill:#8b8b8b;}</style></defs><rect class="cls-2" x="37.83" y="1.21" width="63.29" height="77.35" rx="7.13" ry="7.13" transform="translate(.6 -1.03) rotate(.85)"/><path class="cls-1" d="M93.58,14.91l-47.46-.71c-1.52-.02-2.86-.98-3.38-2.41l-2.5-6.89C39.36,2.5,41.17-.04,43.73,0l52.67.78c2.56.04,4.29,2.63,3.34,5.01l-2.71,6.81c-.56,1.41-1.93,2.33-3.45,2.31Z"/><circle class="cls-3" cx="69.95" cy="8.34" r="4.23"/><circle class="cls-3" cx="69.65" cy="28.27" r="4.23"/><rect class="cls-3" x="68.98" y="11.22" width="1.71" height="14.2" rx=".85" ry=".85" transform="translate(.28 -1.04) rotate(.85)"/><path class="cls-4" d="M62.13,20.28v63.81c0,3.79-3.08,6.86-6.87,6.86H6.86C3.07,90.94,0,87.88,0,84.08V16.18C0,12.39,3.07,9.32,6.86,9.32h41.18l14.09,10.95Z"/><path class="cls-2" d="M48.04,13.06v8.93c0,1.07.87,1.95,1.94,1.95l12.15.07v-3.72s-14.09-7.23-14.09-7.23Z"/><path class="cls-4" d="M48.04,9.32v8.93c0,1.07.87,1.95,1.94,1.95l12.15.07-14.09-10.95Z"/><rect class="cls-2" x="20.19" y="26.94" width="23.74" height="4.71" rx="2.35" ry="2.35"/><rect class="cls-2" x="6.68" y="47.63" width="22.99" height="3.13" rx="1.56" ry="1.56"/><rect class="cls-2" x="6.68" y="71.31" width="16.22" height="3.13" rx="1.56" ry="1.56"/><rect class="cls-2" x="25.33" y="71.31" width="23.6" height="3.13" rx="1.56" ry="1.56"/><rect class="cls-2" x="31.73" y="47.63" width="14.01" height="3.13" rx="1.56" ry="1.56"/><rect class="cls-2" x="6.68" y="54.93" width="30.53" height="3.13" rx="1.56" ry="1.56"/></svg>