<?xml version="1.0" encoding="UTF-8"?><svg id="Layer_1" xmlns="http://www.w3.org/2000/svg" viewBox="0 0 629.14 146.87"><defs><style>.cls-1{fill:#0b1e33;stroke-width:0px;}.cls-2{fill:#f5a201;stroke:#f5a201;stroke-miterlimit:10;stroke-width:.5px;}</style></defs><path class="cls-1" d="M224.78,55.08c2.9,1.56,5.13,3.62,6.7,6.16v-7.72h16.72v54.45c0,5.02-.99,9.56-2.98,13.64-1.99,4.07-5.02,7.32-9.09,9.73-4.07,2.41-9.14,3.62-15.2,3.62-8.08,0-14.63-1.91-19.65-5.72-5.02-3.81-7.89-8.98-8.6-15.49h16.52c.52,2.08,1.76,3.73,3.71,4.94,1.96,1.21,4.37,1.81,7.23,1.81,3.45,0,6.21-.99,8.26-2.98,2.05-1.99,3.08-5.17,3.08-9.53v-7.72c-1.63,2.54-3.88,4.61-6.75,6.21-2.87,1.6-6.22,2.4-10.07,2.4-4.5,0-8.57-1.16-12.22-3.47-3.65-2.31-6.53-5.6-8.65-9.87-2.12-4.27-3.18-9.21-3.18-14.81s1.06-10.52,3.18-14.76c2.12-4.24,5-7.49,8.65-9.78,3.65-2.28,7.72-3.42,12.22-3.42,3.84,0,7.22.78,10.12,2.35ZM228,70.91c-2.31-2.41-5.13-3.62-8.46-3.62s-6.14,1.19-8.46,3.57c-2.31,2.38-3.47,5.65-3.47,9.82s1.16,7.48,3.47,9.92c2.31,2.44,5.13,3.67,8.46,3.67s6.14-1.21,8.46-3.62c2.31-2.41,3.47-5.7,3.47-9.87s-1.16-7.46-3.47-9.87Z"/><path class="cls-1" d="M314.17,53.51v54.55h-16.72v-7.43c-1.7,2.41-3.99,4.35-6.89,5.82-2.9,1.47-6.11,2.2-9.63,2.2-4.17,0-7.85-.93-11.05-2.79-3.19-1.86-5.67-4.55-7.43-8.07-1.76-3.52-2.64-7.66-2.64-12.42v-31.87h16.62v29.62c0,3.65.94,6.49,2.83,8.5,1.89,2.02,4.43,3.03,7.62,3.03s5.83-1.01,7.72-3.03c1.89-2.02,2.83-4.85,2.83-8.5v-29.62h16.72Z"/><path class="cls-1" d="M342.92,35.72v72.34h-16.72V35.72h16.72Z"/><path class="cls-1" d="M385.44,93.89v14.17h-8.5c-6.06,0-10.79-1.48-14.17-4.45-3.39-2.96-5.08-7.8-5.08-14.52v-21.7h-6.65v-13.88h6.65v-13.29h16.72v13.29h10.95v13.88h-10.95v21.9c0,1.63.39,2.8,1.17,3.52.78.72,2.08,1.08,3.91,1.08h5.96Z"/><path class="cls-1" d="M418.19,55.08c2.93-1.56,6.29-2.35,10.07-2.35,4.5,0,8.57,1.14,12.22,3.42,3.65,2.28,6.53,5.54,8.65,9.78,2.12,4.24,3.18,9.16,3.18,14.76s-1.06,10.54-3.18,14.81c-2.12,4.27-5,7.56-8.65,9.87-3.65,2.31-7.72,3.47-12.22,3.47-3.85,0-7.2-.77-10.07-2.3-2.87-1.53-5.12-3.57-6.75-6.11v7.62h-16.72V35.72h16.72v25.51c1.56-2.54,3.81-4.59,6.75-6.16ZM431.82,70.87c-2.31-2.38-5.17-3.57-8.55-3.57s-6.14,1.21-8.46,3.62c-2.31,2.41-3.47,5.7-3.47,9.87s1.16,7.46,3.47,9.87c2.31,2.41,5.13,3.62,8.46,3.62s6.16-1.22,8.5-3.67c2.35-2.44,3.52-5.75,3.52-9.92s-1.16-7.44-3.47-9.82Z"/><path class="cls-1" d="M460.95,65.93c2.12-4.24,5-7.49,8.65-9.78,3.65-2.28,7.72-3.42,12.22-3.42,3.84,0,7.22.78,10.12,2.35,2.9,1.56,5.13,3.62,6.7,6.16v-7.72h16.72v54.55h-16.72v-7.72c-1.63,2.54-3.9,4.59-6.79,6.16-2.9,1.56-6.27,2.35-10.12,2.35-4.43,0-8.47-1.16-12.12-3.47-3.65-2.31-6.53-5.6-8.65-9.87-2.12-4.27-3.18-9.21-3.18-14.81s1.06-10.52,3.18-14.76ZM495.17,70.91c-2.31-2.41-5.13-3.62-8.46-3.62s-6.14,1.19-8.46,3.57c-2.31,2.38-3.47,5.65-3.47,9.82s1.16,7.48,3.47,9.92c2.31,2.44,5.13,3.67,8.46,3.67s6.14-1.21,8.46-3.62c2.31-2.41,3.47-5.7,3.47-9.87s-1.16-7.46-3.47-9.87Z"/><path class="cls-1" d="M551.52,55.52c2.93-1.73,6.19-2.59,9.78-2.59v17.69h-4.59c-4.17,0-7.3.9-9.38,2.69-2.09,1.79-3.13,4.94-3.13,9.43v25.32h-16.72v-54.55h16.72v9.09c1.96-3,4.4-5.36,7.33-7.09Z"/><path class="cls-1" d="M617.85,59.13c3.81,4.14,5.72,9.83,5.72,17.06v31.87h-16.62v-29.62c0-3.65-.95-6.48-2.83-8.5-1.89-2.02-4.43-3.03-7.62-3.03s-5.74,1.01-7.62,3.03c-1.89,2.02-2.83,4.86-2.83,8.5v29.62h-16.72v-54.55h16.72v7.23c1.69-2.41,3.97-4.32,6.84-5.72,2.87-1.4,6.09-2.1,9.68-2.1,6.39,0,11.49,2.07,15.3,6.21Z"/><path class="cls-2" d="M72.29,144.32C32.57,144.32.25,112.01.25,72.29S32.57.25,72.29.25s72.04,32.32,72.04,72.04-32.32,72.04-72.04,72.04ZM72.29,10.52c-34.06,0-61.77,27.71-61.77,61.77s27.71,61.77,61.77,61.77,61.77-27.71,61.77-61.77S106.34,10.52,72.29,10.52Z"/><path class="cls-2" d="M54.76,88.31c-2.84,0-5.14-2.3-5.14-5.14,0-4.2-3.42-7.62-7.62-7.62s-7.62,3.42-7.62,7.62c0,2.84-2.3,5.14-5.14,5.14s-5.14-2.3-5.14-5.14c0-9.86,8.02-17.89,17.89-17.89s17.89,8.02,17.89,17.89c0,2.84-2.3,5.14-5.14,5.14Z"/><path class="cls-2" d="M116.14,88.31c-2.84,0-5.14-2.3-5.14-5.14,0-4.2-3.42-7.62-7.62-7.62s-7.62,3.42-7.62,7.62c0,2.84-2.3,5.14-5.14,5.14s-5.14-2.3-5.14-5.14c0-9.86,8.02-17.89,17.89-17.89s17.89,8.02,17.89,17.89c0,2.84-2.3,5.14-5.14,5.14Z"/><path class="cls-2" d="M83.72,107.79h-22.86c-2.84,0-5.14-2.3-5.14-5.14s2.3-5.14,5.14-5.14h22.86c2.84,0,5.14,2.3,5.14,5.14s-2.3,5.14-5.14,5.14Z"/><path class="cls-2" d="M72.98,56.12c-.7,0-1.41-.14-2.09-.45-16.51-7.38-27.05-23.83-26.86-41.9l.04-3.44c.03-2.82,2.32-5.08,5.13-5.08h.05c2.84.03,5.11,2.35,5.08,5.19l-.04,3.44c-.15,13.99,8.01,26.71,20.78,32.42,2.59,1.16,3.75,4.19,2.59,6.78-.85,1.91-2.73,3.04-4.69,3.04Z"/><path class="cls-2" d="M84.64,35.82c-.7,0-1.41-.14-2.09-.45-10.89-4.87-17.85-15.72-17.72-27.65l.02-2.12c.03-2.82,2.32-5.08,5.13-5.08h.05c2.84.03,5.11,2.35,5.08,5.19l-.02,2.12c-.08,7.84,4.49,14.97,11.64,18.16,2.59,1.16,3.75,4.19,2.59,6.78-.85,1.91-2.73,3.04-4.69,3.04Z"/></svg>