<?xml version="1.0" encoding="UTF-8"?><svg id="Layer_1" xmlns="http://www.w3.org/2000/svg" viewBox="0 0 629.14 146.87"><defs><style>.cls-1{fill:#ffbf6b;}</style></defs><path class="cls-1" d="M225.6,55.71c2.92,1.58,5.17,3.64,6.75,6.2v-7.78h16.84v54.85c0,5.05-1,9.63-3,13.74-2,4.1-5.06,7.37-9.16,9.8-4.1,2.43-9.21,3.64-15.31,3.64-8.14,0-14.74-1.92-19.79-5.76-5.06-3.84-7.94-9.04-8.67-15.61h16.64c.52,2.1,1.77,3.76,3.74,4.97,1.97,1.21,4.4,1.82,7.29,1.82,3.48,0,6.25-1,8.32-3,2.07-2,3.1-5.2,3.1-9.6v-7.78c-1.64,2.56-3.91,4.65-6.79,6.25-2.89,1.61-6.27,2.41-10.14,2.41-4.53,0-8.63-1.17-12.31-3.5-3.68-2.33-6.58-5.65-8.71-9.95-2.13-4.3-3.2-9.27-3.2-14.92s1.07-10.6,3.2-14.87c2.13-4.27,5.04-7.55,8.71-9.85,3.68-2.3,7.78-3.45,12.31-3.45,3.87,0,7.27.79,10.19,2.36ZM228.85,71.66c-2.33-2.43-5.17-3.64-8.52-3.64s-6.19,1.2-8.52,3.59c-2.33,2.4-3.5,5.7-3.5,9.9s1.16,7.53,3.5,10c2.33,2.46,5.17,3.69,8.52,3.69s6.19-1.21,8.52-3.64c2.33-2.43,3.5-5.74,3.5-9.95s-1.17-7.52-3.5-9.95Z"/><path class="cls-1" d="M315.66,54.13v54.95h-16.84v-7.48c-1.71,2.43-4.02,4.38-6.94,5.86-2.92,1.48-6.15,2.22-9.7,2.22-4.2,0-7.91-.94-11.13-2.81-3.22-1.87-5.71-4.58-7.48-8.12s-2.66-7.71-2.66-12.51v-32.1h16.74v29.84c0,3.68.95,6.53,2.86,8.57,1.9,2.04,4.46,3.05,7.68,3.05s5.87-1.02,7.78-3.05c1.9-2.03,2.86-4.89,2.86-8.57v-29.84h16.84Z"/><path class="cls-1" d="M344.61,36.21v72.87h-16.84V36.21h16.84Z"/><path class="cls-1" d="M387.44,94.8v14.28h-8.57c-6.11,0-10.87-1.49-14.28-4.48-3.41-2.99-5.12-7.86-5.12-14.62v-21.86h-6.7v-13.98h6.7v-13.39h16.84v13.39h11.03v13.98h-11.03v22.06c0,1.64.39,2.82,1.18,3.54.79.72,2.1,1.08,3.94,1.08h6.01Z"/><path class="cls-1" d="M420.43,55.71c2.95-1.58,6.33-2.36,10.14-2.36,4.53,0,8.63,1.15,12.31,3.45,3.68,2.3,6.58,5.58,8.71,9.85,2.13,4.27,3.2,9.22,3.2,14.87s-1.07,10.62-3.2,14.92c-2.13,4.3-5.04,7.62-8.71,9.95-3.68,2.33-7.78,3.5-12.31,3.5-3.87,0-7.25-.77-10.14-2.31-2.89-1.54-5.15-3.59-6.79-6.15v7.68h-16.84V36.21h16.84v25.7c1.58-2.56,3.84-4.63,6.79-6.2ZM434.17,71.61c-2.33-2.4-5.2-3.59-8.62-3.59s-6.19,1.21-8.52,3.64c-2.33,2.43-3.5,5.75-3.5,9.95s1.16,7.52,3.5,9.95c2.33,2.43,5.17,3.64,8.52,3.64s6.2-1.23,8.57-3.69c2.36-2.46,3.55-5.79,3.55-10s-1.17-7.5-3.5-9.9Z"/><path class="cls-1" d="M463.51,66.64c2.13-4.27,5.04-7.55,8.71-9.85,3.68-2.3,7.78-3.45,12.31-3.45,3.87,0,7.27.79,10.19,2.36,2.92,1.58,5.17,3.64,6.75,6.2v-7.78h16.84v54.95h-16.84v-7.78c-1.64,2.56-3.92,4.63-6.84,6.2-2.92,1.58-6.32,2.36-10.19,2.36-4.46,0-8.53-1.17-12.21-3.5-3.68-2.33-6.58-5.65-8.71-9.95-2.13-4.3-3.2-9.27-3.2-14.92s1.07-10.6,3.2-14.87ZM497.97,71.66c-2.33-2.43-5.17-3.64-8.52-3.64s-6.19,1.2-8.52,3.59c-2.33,2.4-3.5,5.7-3.5,9.9s1.16,7.53,3.5,10c2.33,2.46,5.17,3.69,8.52,3.69s6.19-1.21,8.52-3.64c2.33-2.43,3.5-5.74,3.5-9.95s-1.17-7.52-3.5-9.95Z"/><path class="cls-1" d="M554.74,56.15c2.95-1.74,6.24-2.61,9.85-2.61v17.82h-4.63c-4.2,0-7.35.9-9.45,2.71-2.1,1.81-3.15,4.97-3.15,9.5v25.5h-16.84v-54.95h16.84v9.16c1.97-3.02,4.43-5.4,7.39-7.14Z"/><path class="cls-1" d="M621.55,59.8c3.84,4.17,5.76,9.9,5.76,17.18v32.1h-16.74v-29.84c0-3.68-.95-6.53-2.86-8.57-1.91-2.03-4.47-3.05-7.68-3.05s-5.78,1.02-7.68,3.05c-1.9,2.04-2.86,4.89-2.86,8.57v29.84h-16.84v-54.95h16.84v7.29c1.71-2.43,4-4.35,6.89-5.76,2.89-1.41,6.14-2.12,9.75-2.12,6.43,0,11.57,2.08,15.41,6.25Z"/><path class="cls-1" d="M72,145.6C31.99,145.6-.57,113.05-.57,73.04S31.99.48,72,.48s72.56,32.55,72.56,72.56-32.55,72.56-72.56,72.56ZM72,10.82c-34.31,0-62.22,27.91-62.22,62.22s27.91,62.22,62.22,62.22,62.22-27.91,62.22-62.22S106.3,10.82,72,10.82Z"/><path class="cls-1" d="M54.35,89.18c-2.86,0-5.17-2.32-5.17-5.17,0-4.23-3.44-7.67-7.67-7.67s-7.67,3.44-7.67,7.67c0,2.86-2.32,5.17-5.17,5.17s-5.17-2.32-5.17-5.17c0-9.94,8.08-18.02,18.02-18.02s18.02,8.08,18.02,18.02c0,2.86-2.32,5.17-5.17,5.17Z"/><path class="cls-1" d="M116.18,89.18c-2.86,0-5.17-2.32-5.17-5.17,0-4.23-3.44-7.67-7.67-7.67s-7.67,3.44-7.67,7.67c0,2.86-2.32,5.17-5.17,5.17s-5.17-2.32-5.17-5.17c0-9.94,8.08-18.02,18.02-18.02s18.02,8.08,18.02,18.02c0,2.86-2.32,5.17-5.17,5.17Z"/><path class="cls-1" d="M83.51,108.81h-23.03c-2.86,0-5.17-2.32-5.17-5.17s2.32-5.17,5.17-5.17h23.03c2.86,0,5.17,2.32,5.17,5.17s-2.32,5.17-5.17,5.17Z"/><path class="cls-1" d="M72.7,56.75c-.71,0-1.42-.15-2.11-.45-16.63-7.43-27.25-24-27.06-42.21l.04-3.46c.03-2.84,2.34-5.12,5.17-5.12h.05c2.86.03,5.15,2.37,5.12,5.23l-.04,3.46c-.15,14.09,8.07,26.91,20.93,32.66,2.61,1.17,3.78,4.22,2.61,6.83-.86,1.92-2.75,3.06-4.73,3.06Z"/><path class="cls-1" d="M84.44,36.3c-.71,0-1.42-.15-2.11-.45-10.97-4.9-17.98-15.83-17.85-27.85l.02-2.13c.03-2.84,2.34-5.12,5.17-5.12h.05c2.86.03,5.15,2.37,5.12,5.23l-.02,2.13c-.08,7.89,4.52,15.08,11.73,18.3,2.61,1.17,3.78,4.22,2.61,6.83-.86,1.92-2.75,3.06-4.73,3.06Z"/></svg>