<?xml version="1.0" encoding="UTF-8"?><svg id="Layer_1" xmlns="http://www.w3.org/2000/svg" viewBox="0 0 140.05 199.83"><defs><style>.cls-1{fill:#890091;}.cls-1,.cls-2,.cls-3,.cls-4,.cls-5,.cls-6,.cls-7,.cls-8,.cls-9,.cls-10{stroke-width:0px;}.cls-2{fill:#64006d;}.cls-3{opacity:.3;}.cls-3,.cls-7{fill:#ffb72b;}.cls-4{fill:#ffa61d;}.cls-5,.cls-8{fill:#fffaf2;}.cls-6{fill:#ffe2b1;}.cls-8{opacity:.8;}.cls-9{fill:#fff;}.cls-10{fill:#0b1e33;}</style></defs><path class="cls-9" d="M140.05,83.99v27.67l-7.89,19.04-10.57,25.53-.25.59-16.5,39.85h0c-.12-.04-.24-.09-.35-.14-.34-.14-.67-.28-1.01-.43-.1-.04-.19-.08-.29-.13-.4-.17-.79-.35-1.18-.56-.14-.05-.27-.12-.4-.19-.29-.14-.57-.28-.85-.43-.2-.1-.4-.21-.6-.32-.07-.04-.15-.07-.22-.12h0c-.09-.05-.17-.1-.26-.15-.22-.12-.44-.25-.65-.37-.46-.26-.93-.55-1.39-.84-.44-.27-.87-.55-1.3-.84-.07-.05-.14-.1-.21-.15-.32-.22-.63-.44-.94-.66-.23-.15-.45-.32-.66-.49-.18-.13-.36-.26-.54-.41-.25-.18-.49-.37-.73-.58-.23-.17-.45-.35-.66-.54-.14-.11-.26-.22-.39-.33-.32-.27-.64-.55-.95-.84-.11-.1-.22-.2-.33-.3-.23-.21-.45-.42-.66-.64-.23-.21-.45-.43-.66-.65l-.22-.22h0c-.12-.13-.24-.24-.34-.35-.18-.18-.36-.37-.54-.57-.19-.2-.37-.4-.54-.6-.21-.23-.41-.45-.6-.69-.16-.17-.31-.35-.45-.54-.17-.2-.34-.41-.5-.62-.25-.31-.5-.63-.73-.95-.06-.07-.12-.15-.17-.23-.24-.31-.46-.63-.68-.95-.07-.09-.14-.19-.2-.29l2.85-6.87,1.2-2.89.04-.09.63-1.51,4.37-10.56h0s3.03-7.31,3.03-7.31l7.39-17.86,1.43-3.43,2.23-5.38,24.55-59.29,7.71,18.6Z"/><path class="cls-6" d="M140.05,83.99v111.71c-.55.25-1.1.49-1.66.73-4.5,1.86-9.13,2.94-13.73,3.28-2.24.17-4.47.16-6.68,0-4.53-.35-8.95-1.37-13.12-3.05-.12-.04-.24-.08-.35-.14-.34-.14-.67-.28-1.01-.43-.1-.04-.19-.08-.29-.13-.4-.17-.79-.35-1.18-.56-.14-.05-.27-.12-.4-.19-.29-.14-.57-.28-.85-.43-.2-.1-.4-.21-.6-.32-.07-.04-.15-.07-.22-.12-.09-.05-.18-.09-.26-.15-.22-.12-.44-.25-.65-.37-.46-.26-.93-.55-1.39-.84-.44-.27-.87-.55-1.3-.84-.07-.05-.14-.1-.21-.15-.32-.22-.63-.44-.94-.66-.23-.15-.45-.32-.66-.49-.18-.13-.36-.26-.54-.41-.25-.18-.49-.37-.73-.58-.23-.17-.45-.35-.66-.54-.14-.11-.26-.22-.39-.33-.32-.27-.64-.55-.95-.84-.11-.1-.22-.2-.33-.3-.23-.21-.45-.42-.66-.64-.23-.21-.45-.43-.66-.65l-.22-.22h0c-.12-.13-.24-.24-.34-.35-.18-.18-.36-.37-.54-.57-.19-.2-.37-.4-.54-.6-.21-.23-.41-.45-.6-.69-.16-.17-.31-.35-.45-.54-.17-.2-.34-.41-.5-.62-.25-.31-.5-.63-.73-.95-.06-.07-.12-.15-.17-.23-.24-.31-.46-.63-.68-.95-.07-.09-.14-.19-.2-.29-1.39-2.01-2.63-4.16-3.7-6.44-.04-.08-.07-.17-.12-.25-.11-.26-.23-.52-.34-.78-.12-.26-.24-.53-.35-.79l-4.26-10.26h0s-3.5-8.47-3.5-8.47l-2.36-5.69-11.02-26.61-1.07-2.59-2.91-7.03-10.43-25.17c-9.42-22.75,1.37-48.83,24.12-58.26,5.58-2.31,11.36-3.41,17.04-3.41,17.5,0,34.1,10.37,41.21,27.53l13.11,31.63Z"/><path class="cls-5" d="M119.8,62.75c7.12,17.18-1.04,36.89-18.22,44.01-17.18,7.12-36.89-1.04-44.01-18.22-3.5-8.44-3.31-17.5-.17-25.37,3.25-8.15,9.66-15.02,18.39-18.64,10.16-4.21,21.2-3.08,30.01,2.1,6.08,3.59,11.1,9.11,14,16.12Z"/><path class="cls-4" d="M116.8,63.22c6.34,15.31-1.23,32.99-16.9,39.49-15.68,6.5-33.54-.65-39.88-15.96-3.12-7.52-2.88-15.62.04-22.68,3.01-7.31,8.89-13.51,16.86-16.81,9.27-3.84,19.3-2.91,27.27,1.65,5.5,3.16,10.02,8.06,12.61,14.31Z"/><rect class="cls-7" x="48.98" y="65.14" width="75.99" height="12.9" rx="6.45" ry="6.45" transform="translate(-20.6 38.16) rotate(-22.2)"/><polygon class="cls-3" points="140.05 132.64 140.05 148.08 121.6 156.22 103.87 164.04 88.72 170.73 83.21 173.16 83.2 173.16 82.84 173.32 81.18 174.05 81.18 174.03 80.99 173.58 80.76 173.03 75.94 161.58 72.59 153.62 72.59 153.61 70.19 147.91 58.98 121.28 57.89 118.68 54.93 111.64 55 111.65 88.82 119.99 96.13 121.8 107.79 124.68 109.04 124.99 132.16 130.69 140.05 132.64"/><polygon class="cls-8" points="140.05 84.67 140.05 148.8 121.35 156.81 103.83 164.33 88.68 170.82 83.21 173.16 83.2 173.16 82.84 173.32 81.18 174.03 80.93 174.14 80.58 174.28 80.81 173.88 80.99 173.58 81.35 172.97 81.35 172.96 83.91 168.52 91.13 156.02 94.03 151 104.13 133.48 105.83 130.55 109.04 124.99 136.8 76.9 140.05 84.67"/><path class="cls-7" d="M116.45,57.16c6.92,16.69-1.01,35.84-17.71,42.76s-35.84-1.01-42.76-17.71c-3.4-8.2-3.22-17-.16-24.65,3.15-7.92,9.38-14.6,17.87-18.11,9.87-4.09,20.6-2.99,29.16,2.05,5.91,3.49,10.78,8.85,13.6,15.66Z"/><path class="cls-2" d="M102.85,41.5c-2.84,1.49-13.42-.52-17.64.62-4.77,1.28-3.12,6.37-14,12.95-6.04,3.65-11.62,3.42-15.38,2.5,3.15-7.92,9.38-14.6,17.87-18.11,9.87-4.09,20.6-2.99,29.16,2.05Z"/><circle class="cls-9" cx="97.57" cy="58.48" r="7.25"/><circle class="cls-10" cx="97.63" cy="61.51" r="4.41"/><circle class="cls-9" cx="99.48" cy="57.52" r="2.9"/><circle class="cls-9" cx="73.38" cy="68.67" r="7.64"/><circle class="cls-10" cx="73.51" cy="71.85" r="4.43"/><circle class="cls-9" cx="75.36" cy="67.85" r="2.91"/><path class="cls-7" d="M105.14,61.02c-2.22-.47-6.13,1.34-8.74,4.06-2.6,2.72-2.91,5.3-.69,5.78s6.13-1.34,8.74-4.06c2.6-2.72,2.91-5.3.69-5.78Z"/><path class="cls-7" d="M81.77,72.23c-2.07-.94-6.28-.01-9.41,2.08s-3.99,4.55-1.92,5.5c2.07.94,6.28.01,9.41-2.08,3.13-2.09,3.99-4.55,1.92-5.5Z"/><path class="cls-1" d="M100.21,31.02s-4.83,4.04-7.12,10.69c-.04.11,11.17.69,11.17.69l-4.06-11.39Z"/><path class="cls-1" d="M94.31,33.68s-3.66,2.25-5.14,7.87c-.03.09,7.7.48,7.7.48l-2.55-8.35Z"/><circle class="cls-10" cx="98.48" cy="79.78" r="4.87"/><path class="cls-7" d="M105.37,152.47l-1.5,11.58-.04.28-3.89,30.02h0s-.69,5.36-.69,5.36H15.75c-2.4-2.73-3.66-6.44-3.16-10.32l6.24-48.12,51.17,6.63.18.02,23.84,3.09,2.71.35,8.63,1.12Z"/><path class="cls-10" d="M105.83,130.55c-.09-.17-.18-.34-.27-.5-1.94-3.36-5.34-5.81-9.45-6.42-.06,0-.14-.02-.21-.03l-8.02-1.04-29.97-3.88h-.02l-14.53-1.88-8.02-1.04c-.07,0-.15-.02-.22-.02-7.09-.81-13.53,4.22-14.45,11.32l-1.84,14.19,51.17,6.63.18.02,23.84,3.09,2.71.35,8.63,1.12,1.84-14.19c.35-2.76-.17-5.43-1.37-7.72ZM43.27,128.24c-.39,3.04-3.17,5.18-6.2,4.78-3.03-.39-5.17-3.17-4.78-6.2.18-1.39.86-2.59,1.84-3.45,1.16-1.01,2.72-1.55,4.37-1.33,1.64.22,3.02,1.12,3.87,2.39.73,1.07,1.08,2.41.9,3.8ZM89.83,139.86c-3.04-.39-5.18-3.17-4.78-6.2.18-1.39.86-2.59,1.85-3.45,1.15-1.01,2.72-1.54,4.36-1.33,1.64.21,3.02,1.12,3.87,2.39.74,1.07,1.09,2.42.91,3.81-.4,3.03-3.17,5.17-6.2,4.78Z"/><rect class="cls-4" x="23.63" y="184.53" width="13.33" height="13.33" rx="3.25" ry="3.25" transform="translate(24.81 -2.31) rotate(7.38)"/><rect class="cls-10" x="25.94" y="166.66" width="13.33" height="13.33" rx="3.25" ry="3.25" transform="translate(22.53 -2.75) rotate(7.38)"/><rect class="cls-10" x="28.26" y="148.79" width="13.33" height="13.33" rx="3.25" ry="3.25" transform="translate(20.26 -3.2) rotate(7.38)"/><path class="cls-4" d="M54.6,190.9l-.88,6.76c-.11.83-.52,1.55-1.1,2.05h-8.46l-.85-.11c-1.78-.23-3.04-1.86-2.81-3.65l.87-6.76c.24-1.78,1.86-3.05,3.65-2.81l6.77.87c1.78.23,3.04,1.86,2.81,3.65Z"/><rect class="cls-10" x="43.2" y="168.89" width="13.33" height="13.33" rx="3.25" ry="3.25" transform="translate(22.96 -4.95) rotate(7.38)"/><rect class="cls-10" x="45.51" y="151.03" width="13.33" height="13.33" rx="3.25" ry="3.25" transform="translate(20.69 -5.4) rotate(7.38)"/><path class="cls-4" d="M71.85,193.14l-.85,6.57h-13.09c-.16-.47-.23-.99-.16-1.52l.88-6.77c.23-1.78,1.86-3.04,3.64-2.8l6.77.87c1.78.23,3.04,1.86,2.81,3.65Z"/><rect class="cls-10" x="60.45" y="171.13" width="13.33" height="13.33" rx="3.25" ry="3.25" transform="translate(23.39 -7.15) rotate(7.38)"/><rect class="cls-10" x="62.77" y="153.26" width="13.33" height="13.33" rx="3.25" ry="3.25" transform="translate(21.12 -7.59) rotate(7.38)"/><path class="cls-4" d="M89.11,195.37l-.56,4.34h-13.43l.78-6.05c.23-1.78,1.86-3.04,3.65-2.81l6.76.88c1.78.23,3.05,1.86,2.81,3.64Z"/><rect class="cls-4" x="77.71" y="173.36" width="13.33" height="13.33" rx="3.25" ry="3.25" transform="translate(23.82 -9.35) rotate(7.38)"/><rect class="cls-10" x="80.03" y="155.5" width="13.33" height="13.33" rx="3.25" ry="3.25" transform="translate(21.55 -9.79) rotate(7.38)"/><rect class="cls-7" x="34.64" y="111.58" width="8.31" height="16.44" rx="4.15" ry="4.15" transform="translate(15.71 -3.99) rotate(7.38)"/><rect class="cls-7" x="87.38" y="118.41" width="8.31" height="16.44" rx="4.15" ry="4.15" transform="translate(17.02 -10.71) rotate(7.38)"/><rect class="cls-7" x="9.75" y="97.42" width="4.99" height="16.1" rx="2.5" ry="2.5" transform="translate(-71.22 39.84) rotate(-45.2)"/><rect class="cls-7" x="25.3" y="94.06" width="4.99" height="11.15" rx="2.5" ry="2.5" transform="translate(-.34 .1) rotate(-.2)"/><rect class="cls-7" x="4.05" y="115.46" width="4.99" height="11.15" rx="2.5" ry="2.5" transform="translate(-114.46 127.99) rotate(-90.2)"/></svg>